<?xml version="1.0" encoding="utf-8"?>
<!-- Generator: Adobe Illustrator 23.0.0, SVG Export Plug-In . SVG Version: 6.00 Build 0)  -->
<svg version="1.1" id="레이어_2" xmlns="http://www.w3.org/2000/svg" xmlns:xlink="http://www.w3.org/1999/xlink" x="0px"
	 y="0px" viewBox="0 0 496.3 51" style="enable-background:new 0 0 496.3 51;" xml:space="preserve">
<style type="text/css">
	.st0{fill-rule:evenodd;clip-rule:evenodd;fill:#FFFFFF;}
</style>
<g>
	<g>
		<path class="st0" d="M0,34.1V51c0,0,43.7,0,49.5,0c5.7,0,13.1-5.3,13.1-14.1c0-3.5,1.4-5.8-2.8-10.5l-6.3-7.5
			c-3.6-3.4,0.4-3.4,3.5-3.4c1.7,0,20.9,0,20.9,0V51h16.6V15.5h22.3V0.3H44.4c-8.8,0-13.1,8.4-12.8,12.8c0.2,4.4,1.1,9.9,8.4,16.6
			c6.7,6.1-3.3,4.4-4.3,4.4C30.5,34.1,0,34.1,0,34.1L0,34.1z"/>
		<path class="st0" d="M153.3,0.3h-26.7l-15,50.7h16.7l2.7-7.1h17.6l2.6,7.1h16.3L153.3,0.3L153.3,0.3z M134.7,31.7l5.7-18.6
			l5.4,18.6H134.7L134.7,31.7z"/>
		<path class="st0" d="M220.2,34.1c-6.4,0-6.4-2.4-6.4-2.4c5.5,0,10.4-8,10.4-16.2c0-8.2-8-15.2-14.4-15.2c-6.4,0-35.9,0-35.9,0V51
			H192V34.1c0,0,7.8,9.1,11.8,12.8c4.1,3.7,4.4,4.1,9.9,4.1c5.5,0,28.7,0,28.7,0V34.1C242.5,34.1,226.6,34.1,220.2,34.1L220.2,34.1z
			 M203.6,22.3c-4.6,0-11.6,0-11.6,0v-9.1c0,0,7.9,0,11.6,0C209,13.1,209.9,22.3,203.6,22.3L203.6,22.3z"/>
	</g>
	<g>
		<polygon class="st0" points="253.8,0 272.5,0 277.2,16.9 281.6,0 301.3,0 306.3,16.9 311.4,0 327.6,0 312.7,50.7 297.9,50.7 
			291.4,26.7 284,50.7 268.8,50.7 253.8,0 		"/>
		<path class="st0" d="M366,0.3h-26.7l-15,50.7h16.7l2.7-7.1h17.6l2.6,7.1h16.3L366,0.3L366,0.3z M347.4,31.7l5.7-18.6l5.4,18.6
			H347.4L347.4,31.7z"/>
		<path class="st0" d="M474.4,15.2c-3,0-6.4,0.4-2.7,3.7l6.3,7.5c4.2,4.7,4.1,6.6,4.1,10.2c0,8.8-8.7,14.1-14.4,14.1l-40,0.3
			c-5.5,0-5.8-0.3-9.9-4.1c-4.1-3.7-11.8-12.8-11.8-12.8V51h-18.3V0.3c0,0,29.5,0,35.9,0c6.4,0,14.4,7,14.4,15.2
			s-4.9,16.2-10.4,16.2c0,0,2.4,2.4,6.5,2.4c4.1,0,19.7,0,19.7,0c1,0,11,1.7,4.3-4.4c-7.3-6.6-8.1-12.2-8.4-16.6
			C449.5,8.8,453.3,0,462.1,0h34.2v15.2H474.4L474.4,15.2z M417.5,22.2c-4.6,0-11.6,0-11.6,0v-9.1c0,0,7.9,0,11.6,0
			C422.8,13.1,423.7,22.2,417.5,22.2L417.5,22.2z"/>
	</g>
</g>
</svg>
